<?xml version="1.0" encoding="UTF-8"?>
<svg id="Camada_1" data-name="Camada 1" xmlns="http://www.w3.org/2000/svg" viewBox="0 0 1080 1080">
  <defs>
    <style>
      .cls-1 {
        fill: #684341;
      }
    </style>
  </defs>
  <path class="cls-1" d="M96.45,548.33c0-68.86,44.78-111.17,111.48-111.17,10.81,0,23.16.92,35.82,4.01v31.5c-12.35-3.4-23.47-5.25-35.2-5.25-49.41,0-79.37,31.5-79.37,80.91s30.58,80.91,80.29,80.91c10.81,0,22.24-1.85,34.28-5.25v31.5c-13.28,3.09-25.63,4.01-35.82,4.01-66.09,0-111.48-42.31-111.48-111.17Z"/>
  <path class="cls-1" d="M260.42,548.02c0-63.93,45.7-111.18,109.32-111.18s108.7,47.25,108.7,111.18-45.39,111.48-108.7,111.48-109.32-47.25-109.32-111.48ZM369.43,629.24c44.47,0,75.97-33.35,75.97-81.22s-31.5-80.91-75.97-80.91-75.66,33.04-75.66,80.91,31.5,81.22,75.66,81.22Z"/>
  <path class="cls-1" d="M498.19,440.24h34.9l45.39,180.96,44.47-180.96h34.59l-57.75,216.17h-43.85l-57.75-216.17Z"/>
  <path class="cls-1" d="M694.89,440.24h104.38v29.03h-72.26v63.31h64.23v27.79h-64.23v67.01h72.26v29.03h-104.38v-216.17Z"/>
  <path class="cls-1" d="M869.67,499.54v156.88h-31.5v-216.17h29.03l85.85,154.1v-154.1h31.5v216.17h-28.41l-86.47-156.88Z"/>
</svg>