<?xml version="1.0" encoding="UTF-8"?>
<svg id="Camada_1" data-name="Camada 1" xmlns="http://www.w3.org/2000/svg" viewBox="0 0 1080 1080">
  <defs>
    <style>
      .cls-1 {
        fill: #684341;
      }
    </style>
  </defs>
  <path class="cls-1" d="M740.62,742.61h-.03v-.03l-18.72-14-32.1-24-19.09-14.26-6.32-4.74-7.85-5.87-17.56-13.13-14.6-10.92-13.18-9.85-10.42-7.79-12.62-9.41-5.08-3.83c-2.54,4.53-5.22,8.95-8.02,13.25-6.63,10.23-14.03,19.87-22.13,28.88-4.94,5.52-10.14,10.78-15.58,15.8-2.82,2.61-5.73,5.14-8.7,7.61-12.93,10.78-27.05,20.13-42.12,27.83-15.95,8.16-32.98,14.47-50.82,18.62v-354.35c17.84,4.15,34.87,10.46,50.82,18.65,15.05,7.67,29.16,17.02,42.1,27.8,2.96,2.47,5.87,5.03,8.72,7.64,5.42,5,10.62,10.25,15.56,15.77,8.1,9.01,15.5,18.65,22.13,28.88,2.82,4.3,5.48,8.71,8.02,13.22l5.11-3.81,12.59-9.41,10.45-7.81,13.16-9.85,14.62-10.92,17.56-13.13,7.85-5.87,6.3-4.71,19.11-14.29,32.07-23.97,18.75-14v-.03h.03l22.84-17.08c-7.2-7.7-14.85-14.96-22.87-21.76-5.45-4.62-11.04-9.03-16.83-13.22-.11-.09-.23-.17-.34-.23-10.67-7.76-21.91-14.76-33.65-20.92-8.24-4.36-16.71-8.28-25.41-11.74-8.27-3.37-16.74-6.3-25.41-8.8-16.38-4.76-33.37-8.05-50.82-9.64-8.36-.78-16.86-1.19-25.41-1.19h-1.16c-1.95,0-3.92.03-5.87.09-3.13.09-6.3.2-9.4.44-3.02.15-6.01.38-8.98.67-17.45,1.6-34.44,4.88-50.82,9.64-5.84,1.68-11.63,3.57-17.31,5.69-11.55,4.18-22.73,9.15-33.51,14.84-11.74,6.16-22.98,13.16-33.65,20.92-.25.15-.51.32-.73.52-5.65,4.1-11.12,8.4-16.43,12.93-13.75,11.68-26.4,24.69-37.75,38.84-.99,1.22-1.98,2.47-2.94,3.72-3.5,4.5-6.89,9.15-10.14,13.89-7.54,11.01-14.34,22.6-20.33,34.69-8.24,16.56-14.96,34.08-19.96,52.29-4.63,16.85-7.82,34.34-9.37,52.29-.76,8.6-1.16,17.34-1.16,26.14s.4,17.55,1.16,26.14c1.55,17.95,4.74,35.44,9.37,52.29,5,18.24,11.72,35.73,19.96,52.29,5.99,12.08,12.79,23.68,20.33,34.69,3.22,4.74,6.61,9.35,10.11,13.86v.03c.99,1.25,1.95,2.47,2.94,3.72,11.38,14.15,24.03,27.16,37.78,38.87,5.31,4.5,10.79,8.8,16.4,12.9h.03c.23.17.42.35.68.52,10.7,7.76,21.97,14.76,33.71,20.92,10.79,5.69,21.97,10.66,33.51,14.84,5.67,2.12,11.46,4.01,17.31,5.69,16.38,4.76,33.37,8.05,50.82,9.64,2.99.29,5.99.52,9.01.67,5.42.35,10.9.52,16.4.52,8.55,0,17.05-.41,25.41-1.19,17.45-1.6,34.44-4.88,50.82-9.64,8.67-2.5,17.14-5.43,25.41-8.8,8.7-3.46,17.17-7.38,25.41-11.74,11.75-6.16,23.01-13.16,33.71-20.92.11-.09.23-.17.34-.23,5.76-4.18,11.35-8.6,16.77-13.19,8.02-6.83,15.67-14.09,22.9-21.79l-22.87-17.08ZM486.5,337.72c14.31-5.23,29.28-9.01,44.72-11.18h.03c2.03-.32,4.04-.58,6.07-.78,8.33-.96,16.83-1.45,25.41-1.45s17.08.49,25.41,1.45c5.14.58,10.25,1.34,15.27,2.27,12.23,2.27,24.11,5.52,35.55,9.7,8.72,3.14,17.22,6.86,25.41,11.07,5.25,2.67,10.39,5.55,15.42,8.66l-15.42,11.5-10.22,7.64-14.99,11.21-.2.15-41.95,31.37-2.77,2.06c-1.98-2.35-4.04-4.65-6.1-6.88-12.9-14.06-27.16-26.78-42.58-37.91-2.71-2-5.45-3.92-8.24-5.75-15.9-10.69-32.89-19.72-50.82-26.9-2.68-1.1-5.36-2.15-8.1-3.11,2.68-1.1,5.36-2.15,8.1-3.11ZM384.86,707.49c-4.35-5.52-8.44-11.24-12.28-17.17-10.5-16.12-19.11-33.67-25.49-52.29-5.76-16.65-9.68-34.16-11.63-52.29-.93-8.57-1.41-17.31-1.41-26.14s.48-17.58,1.41-26.14c1.95-18.13,5.87-35.64,11.63-52.29,6.38-18.62,14.99-36.17,25.49-52.29,3.84-5.93,7.93-11.65,12.28-17.14v295.75ZM664.37,770.44c-8.19,4.18-16.69,7.9-25.41,11.04-11.43,4.18-23.32,7.44-35.52,9.67-5.05.96-10.14,1.71-15.3,2.3-8.33.96-16.83,1.45-25.41,1.45s-17.08-.49-25.41-1.45c-2.03-.2-4.07-.46-6.07-.76-15.47-2.21-30.44-5.98-44.75-11.21-2.74-.96-5.42-2-8.1-3.11,2.74-.96,5.42-2,8.1-3.11,17.93-7.18,34.92-16.21,50.82-26.87,2.82-1.89,5.59-3.81,8.3-5.78,15.39-11.16,29.62-23.85,42.52-37.88,2.09-2.27,4.12-4.56,6.13-6.91l2.74,2.03,41.95,31.37.23.15,14.99,11.24,10.19,7.61,15.42,11.53c-5.03,3.11-10.16,6.01-15.42,8.69Z"/>
  <g>
    <path class="cls-1" d="M140.69,471.92c-19.43-6.08-29.53-22.12-23.2-43.98,5.34-18.38,17.66-25.37,30.71-21.49l-4.57,15.75c-5.08-1.28-10.35,1.87-12.82,10.41-3.56,12.29,3.26,20.15,14.16,23.56,13.26,4.14,21.61-2.14,25.15-14.33,1.03-3.57,1.6-7.58,1.67-11.55l-9.63-3.01-4.76,16.42-11.62-3.63,9.17-31.61,30.33,9.49c1.09,7.19,1.34,17.6-1.82,28.48-5.66,19.5-20.33,32.51-42.76,25.5Z"/>
    <path class="cls-1" d="M152.61,343.29l19.39-33.39,12.05,7.45-11.41,19.63,10.51,6.49,9.99-17.19,11.4,7.04-10,17.19,10.98,6.79,11.41-19.62,12.05,7.44-19.4,33.37-56.97-35.2Z"/>
    <path class="cls-1" d="M243.39,301.67l12.24-13.5c1.82-1.99,1.87-4.21,0-6.01-1.06-1-2.07-1.31-3.68-1.24l-20.32.19c-5.99.02-10.67-1.13-14.57-4.85-7.1-6.79-7.26-16.66.97-25.73l11.67-12.86,10.3,9.84-10.75,11.86c-1.62,1.79-1.61,4.07.06,5.66,1.26,1.2,2.62,1.56,4.76,1.48l19.91-.31c6.18-.09,10.15,1.56,13.63,4.89,7.88,7.51,7.01,17.35-.77,25.93l-13.16,14.49-10.3-9.84Z"/>
    <path class="cls-1" d="M289.21,205.01l-11.47,8.22-8.09-11.8,35.83-25.66,8.09,11.81-11.56,8.27,30.19,44.02-12.8,9.18-30.19-44.03Z"/>
    <path class="cls-1" d="M358.46,123.21c6-2.51,10.06,1.16,13.58-.31,1.77-.74,2.84-2.44,2.07-5.6l8.47-3.53c3.53,8.74,1.99,16.95-5.15,19.93-6.09,2.54-10.19-1.22-13.81.29-1.58.66-2.74,2.4-2.02,5.47l-8.47,3.55c-3.49-8.65-1.92-16.77,5.32-19.79ZM401.04,188.33l-15.45,6.45,2.54,13.46-15.44,6.45-10.71-69.18,21.79-9.1,40.28,56.83-15.45,6.45-7.58-11.36ZM393.63,177.11l-16.14-24.4,5.55,28.83,10.59-4.43Z"/>
    <path class="cls-1" d="M454.7,149.05c-2.58-20.06,9.34-36.58,29.6-39.18,20.38-2.6,36.11,10.39,38.7,30.45,2.61,20.16-9.43,36.6-29.7,39.19-20.26,2.59-35.98-10.3-38.6-30.46ZM491.39,164.65c10.98-1.41,17.36-10.16,15.8-22.31-1.58-12.15-9.98-19.02-20.96-17.62-10.89,1.39-17.18,10.13-15.61,22.28,1.57,12.15,9.87,19.04,20.77,17.65Z"/>
    <path class="cls-1" d="M648.5,121.46l36.49,11.32-3.94,13.76-21.45-6.65-3.44,12,18.79,5.82-3.73,13.02-18.78-5.82-3.61,12.55,21.46,6.65-3.94,13.76-36.49-11.31,18.65-65.1Z"/>
    <path class="cls-1" d="M740.82,156.55l21.48,13.74-13.1,42.25,31-30.81,20.9,13.38-34.76,57.59-13.02-8.33,27.71-45.91-39.34,38.47-10.9-6.97,15.69-52.91-27.41,45.42-13.01-8.33,34.76-57.58Z"/>
    <path class="cls-1" d="M848.75,238.35l14.05,15.77c10.16,11.4,11.43,24.74-.32,35.77-11.83,11.1-24.66,8.6-34.82-2.81l-3.43-3.85-13.57,12.73-10.61-11.92,48.71-45.69ZM836.29,276.7c5.12,5.74,10.85,5.3,15.45.99,4.59-4.31,5.26-10,.22-15.67l-2.33-2.61-15.65,14.68,2.32,2.61Z"/>
    <path class="cls-1" d="M913.89,322.59l10.51,19.77c7.03,13.21,4.37,25.98-6.43,31.96-6.65,3.68-13.88,3.43-20.1-.38l-19.34,23.68-8.21-15.45,17.09-20.21-2.61-4.92-21.5,11.92-7.53-14.16,58.12-32.2ZM898.28,355.71c2.81,5.26,7.12,6.9,11.61,4.42,4.31-2.4,5.37-6.67,2.44-12.19l-2.53-4.75-14.04,7.78,2.52,4.75Z"/>
    <path class="cls-1" d="M957.91,421.5l10.14,37.71-13.51,3.73-5.96-22.16-11.77,3.25,5.22,19.43-12.78,3.53-5.22-19.42-12.32,3.41,5.97,22.16-13.51,3.73-10.15-37.7,63.9-17.66Z"/>
    <path class="cls-1" d="M924.73,517.94l1,18.51c.15,2.74,1.66,4.34,4.21,4.21,1.41-.07,2.33-.61,3.41-1.83l13.86-15.14c4.12-4.42,8.15-7.08,13.44-7.34,9.65-.48,16.65,6.34,17.33,18.77l.97,17.63-13.99.7-.88-16.26c-.14-2.44-1.75-4.04-4.01-3.92-1.7.09-2.89.83-4.32,2.47l-13.49,14.91c-4.21,4.62-8.09,6.39-12.82,6.62-10.68.53-16.98-7.01-17.62-18.76l-1.08-19.88,13.99-.7Z"/>
    <path class="cls-1" d="M918.29,636.88l2.86-16.88-12.42-5.11,2.85-16.88,62.62,28.34-4.04,23.83-68.1,3.97,2.87-16.88,13.36-.38ZM931.44,636.55l28.63-.71-26.66-10.87-1.96,11.58Z"/>
    <path class="cls-1" d="M949.96,722.62l-8.84,20.45c-5.92,13.66-17.45,19.16-28.7,13.95-6.93-3.2-11.17-9.23-12.04-16.6l-30.21-1.53,6.93-15.98,26.14,1.79,2.2-5.09-22.43-10.37,6.35-14.63,60.61,28.01ZM914.74,729.81c-2.36,5.46-.98,9.95,3.7,12.11,4.51,2.08,8.46.38,10.94-5.34l2.12-4.91-14.63-6.76-2.13,4.91Z"/>
    <path class="cls-1" d="M901.4,816.03l-8.94,13.11-54.41-39.29,8.94-13.12,54.41,39.3Z"/>
    <path class="cls-1" d="M793.99,858.6l12.25-11.57-6.93-11.77,12.26-11.57,33.4,61.33-17.3,16.33-56.86-39.17,12.25-11.57,10.93,7.99ZM804.72,866.52l23.33,17.23-14.93-25.16-8.4,7.93Z"/>
    <path class="cls-1" d="M769.21,945.48l-13.57,7.92-26.08-46.71-15.23,8.89-6.99-12.52,28.8-16.82,33.08,59.24Z"/>
    <path class="cls-1" d="M618.15,970.37c3.19,22.74-10.43,36.91-30.38,39.68-3.87.54-8.47.79-13.27.18l-2.19-15.51c4.76.91,8.93,1.11,13.09.54,12.01-1.67,18.75-9.97,16.96-22.7-1.78-12.62-10.91-18.62-22.73-16.98-3.97.55-8.03,1.89-12.25,4.06l-2.18-15.51c4.65-1.92,9.22-2.95,12.81-3.46,19.68-2.72,36.96,7.06,40.14,29.7Z"/>
    <path class="cls-1" d="M523.44,978.93c-2.27,20.06-17.8,33.05-38.1,30.45-20.4-2.61-32.59-19.14-30.32-39.21,2.28-20.16,17.89-33.04,38.2-30.44,20.32,2.6,32.51,19.03,30.23,39.2ZM491.54,954.58c-11.01-1.41-19.29,5.46-20.67,17.61-1.37,12.16,5.15,20.92,16.15,22.33,10.92,1.4,19.11-5.48,20.49-17.63,1.37-12.16-5.05-20.9-15.96-22.3Z"/>
    <path class="cls-1" d="M388.99,954.17l14.8-36.49,14.12,6.12-25.38,62.6-12.97-5.62-5.62-43.75-14.24,35.14-14.13-6.11,25.37-62.61,12.72,5.51,5.33,45.21Z"/>
    <path class="cls-1" d="M292.49,916.04l11.26,8.71-8.37,11.46-35.16-27.19,8.37-11.46,11.34,8.77,31.23-42.73,12.55,9.71-31.23,42.73Z"/>
    <path class="cls-1" d="M189.47,865.82l-10.83-12.89,19.95.33,8.7,10.37-17.83,2.2ZM241.17,812.65l10.95,13.04,11.63-6.61,10.96,13.05-60.55,31.67-15.48-18.41,39.57-56.66,10.96,13.06-8.06,10.86ZM233.18,823.3l-17.35,23.21,24.87-14.26-7.51-8.95Z"/>
    <path class="cls-1" d="M156.42,782.49l-9.15-18.72c-7.41-15.13-5-24.47,4.55-29.34,6.25-3.18,12.24-2.4,17.23,1.98-1.28-8.24,2.07-13.91,8.66-17.27,11.08-5.64,21.42-.48,29.81,16.67l8.08,16.53-59.17,30.16ZM194.35,740.42c-3.06-6.25-6.51-8.55-11.16-6.18-4.31,2.2-5.03,6.53-1.77,13.2l-9.3,4.75c-2.54-5.19-6.45-6.93-10.34-4.95-3.73,1.89-4.77,4.95-1.84,10.93l1.76,3.6,34.49-17.58-1.85-3.78Z"/>
    <path class="cls-1" d="M117.05,685.24l-4.1-15.55,64.02-17.25,4.1,15.55-64.02,17.25Z"/>
    <path class="cls-1" d="M102.31,610.1l-1.25-16.04,52.07-3.84-1.4-18,13.96-1.04,2.66,34.04-66.04,4.87Z"/>
  </g>
</svg>