<?xml version="1.0" encoding="UTF-8"?>
<svg id="Camada_1" data-name="Camada 1" xmlns="http://www.w3.org/2000/svg" viewBox="0 0 1080 1080">
  <defs>
    <style>
      .cls-1 {
        fill: #684341;
      }
    </style>
  </defs>
  <path class="cls-1" d="M540,67.29c-248.69,0-450.99,202.32-450.99,451.01s202.3,450.99,450.99,450.99,450.99-202.3,450.99-450.99S788.69,67.29,540,67.29ZM540,947.11c-236.46,0-428.81-192.38-428.81-428.81S303.54,89.48,540,89.48s428.81,192.36,428.81,428.82-192.38,428.81-428.81,428.81Z"/>
  <path class="cls-1" d="M540,89.48c-236.46,0-428.81,192.36-428.81,428.82s192.36,428.81,428.81,428.81,428.81-192.38,428.81-428.81S776.44,89.48,540,89.48ZM839.76,818.05c-80.05,80.07-186.53,124.17-299.76,124.17s-219.68-44.1-299.76-124.17c-80.07-80.07-124.17-186.53-124.17-299.76s44.1-219.7,124.17-299.78c80.07-80.07,186.53-124.17,299.76-124.17s219.7,44.1,299.76,124.17c80.07,80.07,124.17,186.53,124.17,299.78s-44.1,219.68-124.17,299.76ZM540,99.89c-230.7,0-418.39,187.69-418.39,418.41s187.69,418.39,418.39,418.39,418.39-187.69,418.39-418.39S770.7,99.89,540,99.89ZM922.21,496.53l.83,15.39-12.2.61-.77-14.19c-.13-2.14-1.53-3.52-3.51-3.41-1.48.07-2.53.72-3.76,2.16l-11.77,13.01c-3.67,4.04-7.07,5.57-11.2,5.77-9.3.46-14.8-6.11-15.37-16.37l-.94-17.36,12.21-.59.87,16.14c.15,2.4,1.46,3.78,3.69,3.67,1.22-.06,2.03-.54,2.97-1.61l12.08-13.19c3.6-3.87,7.12-6.18,11.73-6.42,8.41-.41,14.52,5.54,15.13,16.38ZM913.54,430.29l-11.79,3.25-5.2-19.34-10.28,2.82,4.56,16.96-11.14,3.08-4.56-16.94-10.76,2.97,5.2,19.34-11.79,3.27-8.86-32.9,55.76-15.42,8.86,32.91ZM866.27,311.07l9.17,17.25c6.14,11.53,3.82,22.68-5.61,27.88-5.79,3.23-12.1,3.01-17.53-.31l-16.88,20.65-7.18-13.47,14.93-17.64-2.29-4.3-18.76,10.41-6.57-12.36,50.72-28.1ZM821.69,251.31c8.86,9.96,9.96,21.59-.3,31.22-10.31,9.69-21.51,7.51-30.37-2.45l-3.01-3.36-11.83,11.11-9.26-10.41,42.49-39.87,12.27,13.76ZM715.24,166.18l18.75,11.99-11.44,36.86,27.07-26.88,18.23,11.68-30.33,50.26-11.37-7.27,24.19-40.07-34.34,33.58-9.5-6.09,13.69-46.18-23.91,39.63-11.37-7.27,30.33-50.24ZM634.69,135.55l31.84,9.87-3.45,12.01-18.71-5.79-3.01,10.46,16.4,5.07-3.27,11.37-16.38-5.07-3.15,10.96,18.73,5.79-3.43,12.01-31.85-9.87,16.27-56.81ZM491.4,125.44c17.77-2.27,31.51,9.06,33.76,26.57,2.29,17.58-8.23,31.94-25.92,34.19-17.68,2.27-31.4-8.99-33.67-26.57-2.25-17.51,8.14-31.94,25.83-34.19ZM407.47,211.27l-13.47,5.63-9.34-60.37,19-7.93,35.15,49.59-13.47,5.63-6.62-9.91-13.47,5.63,2.21,11.73ZM381.59,137.08c5.22-2.2,8.76,1.01,11.84-.28,1.55-.65,2.47-2.12,1.81-4.89l7.4-3.08c3.06,7.62,1.73,14.78-4.5,17.38-5.31,2.23-8.89-1.05-12.05.26-1.38.59-2.4,2.1-1.75,4.78l-7.4,3.1c-3.04-7.55-1.68-14.65,4.65-17.27ZM335.35,182.93l7.05,10.31-10.07,7.21,26.35,38.41-11.18,8.01-26.35-38.41-10,7.16-7.07-10.3,31.27-22.4ZM259.04,248.17l10.17-11.22,8.98,8.58-9.37,10.35c-1.4,1.57-1.4,3.54.06,4.94,1.11,1.03,2.29,1.37,4.15,1.29l17.38-.28c5.41-.07,8.86,1.37,11.9,4.28,6.86,6.55,6.11,15.15-.68,22.62l-11.48,12.66-8.98-8.6,10.68-11.77c1.59-1.75,1.62-3.67,0-5.26-.92-.87-1.81-1.13-3.21-1.07l-17.73.15c-5.24.02-9.32-.98-12.73-4.23-6.2-5.92-6.33-14.54.87-22.45ZM218.86,300l10.52,6.49-9.94,17.12,9.15,5.66,8.73-15,9.94,6.14-8.73,15,9.59,5.92,9.96-17.12,10.52,6.49-16.94,29.13-49.72-30.72,16.92-29.13ZM171.29,403c4.67-16.05,15.42-22.14,26.81-18.76l-3.99,13.76c-4.45-1.13-9.04,1.62-11.2,9.08-3.1,10.72,2.84,17.58,12.36,20.55,11.57,3.62,18.86-1.86,21.96-12.51.89-3.12,1.38-6.6,1.46-10.07l-8.41-2.64-4.15,14.34-10.15-3.17,8.01-27.58,26.46,8.28c.96,6.27,1.18,15.35-1.59,24.85-4.93,17.01-17.73,28.38-37.31,22.25-16.96-5.3-25.77-19.32-20.26-38.38ZM156.96,547.96l45.44-3.36-1.22-15.7,12.18-.9,2.32,29.7-57.64,4.26-1.09-14ZM167.33,613.96l55.87-15.06,3.58,13.56-55.87,15.07-3.58-13.58ZM197.29,696.06c-6.48-13.21-4.37-21.37,3.97-25.61,5.44-2.79,10.66-2.1,15.04,1.72-1.13-7.18,1.81-12.14,7.55-15.07,9.67-4.91,18.69-.41,26.01,14.56l7.05,14.41-51.64,26.33-7.97-16.33ZM234.12,785.12l-9.47-11.25,17.42.3,7.6,9.04-15.55,1.92ZM242.16,767.28l34.52-49.45,9.58,11.4-7.03,9.47,9.56,11.38,10.15-5.76,9.58,11.38-52.84,27.64-13.51-16.07ZM333.84,836.54l-7.31,10-30.68-23.73,7.31-10,9.89,7.66,27.27-37.29,10.94,8.47-27.25,37.29,9.83,7.6ZM411.31,890.34l-11.33-4.91-4.89-38.17-12.43,30.66-12.32-5.33,22.14-54.63,11.09,4.8,4.65,39.45,12.92-31.83,12.32,5.33-22.14,54.63ZM525.55,883.81c-1.97,17.51-15.53,28.84-33.25,26.57-17.8-2.27-28.45-16.7-26.46-34.21,1.99-17.6,15.61-28.84,33.32-26.57,17.73,2.27,28.38,16.61,26.38,34.21ZM581.68,910.97c-3.38.48-7.38.7-11.57.17l-1.92-13.54c4.15.79,7.79.96,11.42.46,10.48-1.46,16.37-8.69,14.8-19.8-1.55-11.01-9.52-16.25-19.83-14.82-3.47.48-7.01,1.66-10.68,3.54l-1.9-13.54c4.04-1.68,8.04-2.58,11.16-3.01,17.18-2.38,32.27,6.16,35.04,25.9,2.79,19.85-9.1,32.21-26.51,34.63ZM648.52,751.73c-7.21,2.93-14.61,5.5-22.18,7.68-14.28,4.15-29.11,7.03-44.34,8.41-7.29.68-14.7,1.03-22.18,1.03-4.8,0-9.59-.15-14.32-.44-2.64-.13-5.24-.33-7.86-.59-15.22-1.38-30.05-4.26-44.35-8.41-5.09-1.48-10.15-3.12-15.09-4.96-10.07-3.65-19.83-7.99-29.24-12.95-10.26-5.39-20.09-11.49-29.43-18.27-.22-.15-.39-.3-.59-.46h-.02c-4.91-3.56-9.69-7.32-14.32-11.25-11.99-10.2-23.03-21.57-32.97-33.91-.85-1.09-1.7-2.16-2.55-3.25v-.02c-3.06-3.93-6.01-7.97-8.84-12.1-6.57-9.59-12.51-19.72-17.73-30.26-7.2-14.45-13.06-29.7-17.42-45.63-4.04-14.7-6.83-29.96-8.17-45.63-.68-7.51-1.01-15.15-1.01-22.82s.33-15.31,1.01-22.82c1.35-15.66,4.13-30.92,8.17-45.63,4.35-15.89,10.22-31.18,17.42-45.63,5.22-10.55,11.16-20.66,17.73-30.28,2.84-4.13,5.79-8.17,8.86-12.1.83-1.09,1.7-2.2,2.56-3.25,9.91-12.34,20.94-23.71,32.93-33.89,4.63-3.97,9.41-7.71,14.34-11.29.2-.17.42-.33.65-.44,9.32-6.77,19.11-12.88,29.37-18.27,9.41-4.96,19.17-9.3,29.24-12.95,4.94-1.85,10-3.49,15.09-4.96,14.3-4.15,29.13-7.03,44.35-8.41,2.58-.26,5.2-.46,7.84-.59,2.71-.2,5.46-.3,8.19-.37,1.72-.06,3.43-.09,5.13-.09h1.01c7.47,0,14.89.37,22.18,1.05,15.22,1.38,30.06,4.26,44.34,8.41,7.56,2.18,14.96,4.74,22.18,7.68,7.6,3.03,14.98,6.44,22.18,10.24,10.26,5.39,20.05,11.49,29.37,18.27.09.04.2.11.29.2,5.06,3.63,9.93,7.49,14.69,11.53,6.99,5.92,13.67,12.27,19.95,18.99l-19.93,14.91h-.02v.02l-16.36,12.21-27.99,20.92-16.68,12.47-5.5,4.11-6.84,5.11-15.33,11.46-12.75,9.54-11.49,8.6-9.11,6.81-10.98,8.21-4.46,3.32c-2.21-3.93-4.54-7.79-6.99-11.53-5.79-8.93-12.25-17.34-19.32-25.2-4.32-4.82-8.84-9.39-13.58-13.76-2.49-2.27-5.02-4.5-7.62-6.66-11.27-9.41-23.6-17.56-36.73-24.26-13.91-7.14-28.76-12.66-44.34-16.27v309.22c15.57-3.63,30.42-9.13,44.34-16.25,13.17-6.72,25.48-14.87,36.77-24.28,2.58-2.16,5.13-4.35,7.58-6.64,4.76-4.39,9.3-8.99,13.6-13.8,7.07-7.86,13.52-16.27,19.32-25.18,2.44-3.76,4.78-7.62,6.99-11.57l4.45,3.36,11.02,8.21,9.08,6.79,11.51,8.6,12.73,9.52,15.33,11.46,6.84,5.13,5.52,4.13,16.66,12.44,28.01,20.94,16.35,12.23v.02h.02l19.96,14.91c-6.31,6.72-12.99,13.06-19.98,19-4.74,4.02-9.61,7.86-14.63,11.51-.11.06-.2.13-.3.2-9.35,6.77-19.17,12.88-29.43,18.27-7.2,3.8-14.58,7.21-22.18,10.24ZM728.17,861.54l-22.77-40.76-13.28,7.75-6.09-10.92,25.11-14.69,28.87,51.7-11.84,6.92ZM791.03,816.12l-49.61-34.19,10.68-10.09,9.54,6.97,10.7-10.09-6.05-10.28,10.7-10.09,29.15,53.52-15.11,14.24ZM847.58,753.11l-47.49-34.3,7.8-11.44,47.47,34.3-7.79,11.44ZM890.03,678c-5.17,11.92-15.22,16.72-25.06,12.18-6.03-2.8-9.74-8.06-10.5-14.48l-26.37-1.35,6.05-13.93,22.8,1.55,1.92-4.45-19.58-9.04,5.55-12.77,52.88,24.45-7.71,17.84ZM915.38,596.93l-59.43,3.47,2.49-14.74,11.66-.33,2.49-14.72-10.83-4.46,2.49-14.74,54.65,24.74-3.52,20.79Z"/>
  <polygon class="cls-1" points="791.36 800.77 771.01 785.73 778.34 778.79 791.36 800.77"/>
  <path class="cls-1" d="M881.64,668.04l-1.85,4.28c-2.16,5-5.63,6.48-9.56,4.67-4.08-1.88-5.28-5.79-3.23-10.57l1.86-4.28,12.77,5.9Z"/>
  <polygon class="cls-1" points="906.56 584.42 881.6 585.05 883.3 574.94 906.56 584.42"/>
  <path class="cls-1" d="M862.78,343.83c-3.91,2.16-7.68.72-10.13-3.87l-2.2-4.13,12.25-6.79,2.2,4.15c2.56,4.82,1.64,8.54-2.12,10.65Z"/>
  <path class="cls-1" d="M812.03,271.88c-4,3.76-9,4.15-13.47-.87l-2.03-2.27,13.65-12.82,2.05,2.29c4.39,4.94,3.82,9.91-.2,13.67Z"/>
  <path class="cls-1" d="M511.64,882.04c-1.2,10.59-8.36,16.61-17.88,15.39-9.59-1.24-15.3-8.87-14.1-19.48,1.22-10.61,8.43-16.61,18.04-15.37,9.52,1.22,15.13,8.86,13.93,19.46Z"/>
  <path class="cls-1" d="M239.98,678.98l-30.09,15.35-1.55-3.15c-2.55-5.22-1.64-7.88,1.6-9.54,3.39-1.73,6.81-.2,9.02,4.32l8.12-4.13c-2.84-5.83-2.21-9.61,1.55-11.53,4.06-2.07,7.07-.06,9.74,5.39l1.61,3.3Z"/>
  <polygon class="cls-1" points="278.82 755.82 257.11 768.26 272.25 748 278.82 755.82"/>
  <polygon class="cls-1" points="412.27 184.11 403.03 187.99 398.17 162.82 412.27 184.11"/>
  <path class="cls-1" d="M497.58,173.24c-9.52,1.22-16.75-4.8-18.12-15.41-1.38-10.61,4.11-18.23,13.62-19.45,9.58-1.22,16.92,4.78,18.28,15.39,1.37,10.59-4.19,18.23-13.78,19.46Z"/>
  <path class="cls-1" d="M661.97,694.31c-4.37,2.71-8.86,5.24-13.45,7.56-7.14,3.65-14.56,6.9-22.18,9.63-9.96,3.65-20.35,6.49-30.98,8.45-4.41.83-8.86,1.49-13.36,2.01-7.27.83-14.69,1.25-22.18,1.25s-14.91-.42-22.18-1.25c-1.77-.18-3.54-.41-5.29-.66-13.51-1.94-26.57-5.22-39.06-9.8-2.38-.83-4.72-1.73-7.07-2.71,2.4-.83,4.74-1.73,7.07-2.71,15.64-6.25,30.48-14.13,44.35-23.45,2.47-1.64,4.89-3.32,7.25-5.04,13.41-9.74,25.85-20.81,37.1-33.06,1.83-1.97,3.6-3.97,5.35-6.03l2.38,1.79,36.61,27.36.2.13,13.08,9.82,8.89,6.64,13.45,10.07Z"/>
  <path class="cls-1" d="M404.61,388.85v258.1c-3.8-4.82-7.36-9.82-10.72-14.98-9.17-14.08-16.68-29.39-22.25-45.63-5.02-14.54-8.45-29.82-10.15-45.63-.81-7.49-1.24-15.11-1.24-22.82s.42-15.33,1.24-22.82c1.7-15.81,5.13-31.11,10.15-45.63,5.57-16.25,13.08-31.55,22.25-45.63,3.36-5.17,6.92-10.17,10.72-14.96Z"/>
  <path class="cls-1" d="M661.97,341.47l-13.45,10.04-8.91,6.68-13.08,9.78-.18.13-36.61,27.38-2.42,1.79c-1.72-2.05-3.52-4.04-5.31-6-11.25-12.27-23.71-23.38-37.16-33.08-2.36-1.75-4.76-3.43-7.2-5.02-13.87-9.34-28.71-17.21-44.35-23.49-2.33-.96-4.67-1.86-7.07-2.71,2.34-.96,4.69-1.86,7.07-2.71,12.49-4.56,25.55-7.86,39.04-9.76h.02c1.77-.28,3.52-.5,5.29-.68,7.27-.83,14.69-1.25,22.18-1.25s14.91.42,22.18,1.25c4.48.52,8.95,1.16,13.32,1.97,10.66,1.99,21.05,4.83,31.01,8.47,7.62,2.75,15.04,6,22.18,9.67,4.59,2.32,9.08,4.83,13.45,7.55Z"/>
</svg>